<svg xmlns="http://www.w3.org/2000/svg" viewBox="0 0 114.25 99.63"><title>Asset 1</title><g id="Layer_2" data-name="Layer 2"><g id="Mobile-layout"><g id="Header"><g id="Earth_Icon" data-name="Earth Icon"><path d="M64.44,0a49.82,49.82,0,1,0,49.82,49.82A49.87,49.87,0,0,0,64.44,0Zm45.49,38.44L101.69,38a1.46,1.46,0,0,0-1.12,2.5l2.75,2.75a2.58,2.58,0,0,1-.16,3.8c-1.34,1.12-2.12,1.71-2.56,2a92.54,92.54,0,0,1-5.8-7.27l.85-2.89a3.19,3.19,0,0,0-1.58-3.72l-11.53-6A1.46,1.46,0,0,0,81.4,29l-6.15,2a.15.15,0,0,1-.14,0L72.47,29a.14.14,0,0,1-.06-.13.14.14,0,0,1,0-.09l8.66-3.54a1.46,1.46,0,0,0,.1-2.67l-6-3L78.62,15a6.2,6.2,0,0,1,5.09-2.44l2.93.08-1.13,1a1.46,1.46,0,0,0-.11,2l3.77,4.36a1.46,1.46,0,0,0,2.12.1l5-4.75A46.92,46.92,0,0,1,109.92,38.44ZM94,56.5a1.46,1.46,0,0,0,1.27,1.08l2.51.25,0,0L90.2,82a.79.79,0,0,1-.76.55H86a.79.79,0,0,1-.78-.64l-4-20.82A1.46,1.46,0,0,0,80,59.91l-7.44-1.15L67.31,46.83,77.78,42l13,2.36ZM91.68,11.68q1.2.86,2.35,1.8L90.38,17l-1.83-2.12S91.6,11.92,91.68,11.68ZM51.27,5.58a1.41,1.41,0,0,1-.34,1.09,5.4,5.4,0,0,0-.69,1.06l-5,9.47a1.72,1.72,0,0,1-1.47.92l-3,.09a6.93,6.93,0,0,0-2.77.71,1.46,1.46,0,0,1-1.11.05,1.41,1.41,0,0,1-.81-.74s-1.91-4.16-1.9-4.19A46.85,46.85,0,0,1,51,4.89,1.44,1.44,0,0,1,51.27,5.58ZM25.88,23.16l-.14,3.16a4.22,4.22,0,0,0,3.81,4.4,4.27,4.27,0,0,1,3,1.74,3.85,3.85,0,0,1,.68,3.12,5.13,5.13,0,0,1-.71,1.7L28.2,44a14,14,0,0,0-2.11,9.4l-8.54-3.12c0-.15,0-.3,0-.44A46.62,46.62,0,0,1,25.88,23.16ZM64.44,96.71A47,47,0,0,1,17.68,53.43L27.56,57S35.31,68.44,36.12,70c.52,1,4.37,10.61,4.37,10.61a8.42,8.42,0,0,1,.43,1.4c.53,2.47,2.85,9.36,12.28,11.72a1.47,1.47,0,0,0,1.73-.92,1.53,1.53,0,0,0-.16-1.31,15.6,15.6,0,0,1,2-19.47,1.46,1.46,0,0,0,.45-1.11l-.44-11.76a1.46,1.46,0,0,0-1.4-1.41l-10.52-.42-7.09-4.17a1.46,1.46,0,0,0-1-.17L29.3,54.51a11.06,11.06,0,0,1,1.36-8.93L35,38.87a8,8,0,0,0,1.11-2.66,6.83,6.83,0,0,0-1.17-5.47,7.2,7.2,0,0,0-5.1-2.93,1.29,1.29,0,0,1-1.18-1.33L29,19.14q1.35-1.56,2.84-3l1.57,3.34a4.34,4.34,0,0,0,2.48,2.25,4.41,4.41,0,0,0,3.35-.17,4,4,0,0,1,1.6-.43l3-.09a4.65,4.65,0,0,0,4-2.49l4.9-9.34a4.65,4.65,0,0,1,.48-.76,4.33,4.33,0,0,0,.94-3.2,4.42,4.42,0,0,0-.29-1.15A46.89,46.89,0,0,1,88.77,9.75l-5-.14a9.13,9.13,0,0,0-7.51,3.61l-4.5,5.94a1.53,1.53,0,0,0-.31.71,1.47,1.47,0,0,0,.8,1.52L77,23.76l-6,2.46a3.08,3.08,0,0,0-1.53,3.11,3.19,3.19,0,0,0,1.24,2.06l2.56,2a3.07,3.07,0,0,0,2.86.49L81.73,32l11,5.74a.25.25,0,0,1,.13.3s-1,3.38-1,3.5L77.85,39a1.46,1.46,0,0,0-.88.11l-12.2,5.66a1.46,1.46,0,0,0-.72,1.92l6.14,14a1.46,1.46,0,0,0,1.12.86l7.22,1.11,3.81,19.81a3.73,3.73,0,0,0,3.66,3h3.45A3.71,3.71,0,0,0,93,82.87l7.65-24.1a3,3,0,0,0-.6-2.86,3.08,3.08,0,0,0-2-1l-1.41-.14-2.37-8.89c4.83,6.33,5.48,6.34,6.21,6.34s1.31-.21,4.59-3a5.51,5.51,0,0,0,.35-8.11l0,0,5.21.3a46.91,46.91,0,0,1-46.13,55.3Zm-13.83-7a12.82,12.82,0,0,1-6.88-8.56c-.11-.43-.58-1.78-.58-1.78l-3.59-8.82A20,20,0,0,0,37.76,67l-6.62-9.94,5.61-1.18L43.65,60a1.47,1.47,0,0,0,.68.2l9.54.38.36,9.8C52.49,72.36,46.71,79.9,50.61,89.69Z" style="fill:#f7f3e8"/><path d="M17.3,8.66a8.65,8.65,0,1,0-8.65,8.65A8.66,8.66,0,0,0,17.3,8.66ZM8.65,14.38a5.72,5.72,0,1,1,5.72-5.72A5.73,5.73,0,0,1,8.65,14.38Z" style="fill:#f7f3e8"/></g></g></g></g></svg>