<svg xmlns="http://www.w3.org/2000/svg" viewBox="0 0 71.3 71.3"><title>Asset 5</title><g id="Layer_2" data-name="Layer 2"><g id="Desktop_layout" data-name="Desktop layout"><g id="Content"><g id="Top_text" data-name="Top text"><g id="Layer_15" data-name="Layer 15"><g id="Layer_18" data-name="Layer 18"><circle cx="35.65" cy="35.65" r="34.6" style="fill:none;stroke:#000;stroke-linecap:round;stroke-linejoin:round;stroke-width:2.09573385494487px"/><path d="M50.25,4.79c0,3-3,5.57-6.92,5.63S36.27,8.07,36.22,5" style="fill:none;stroke:#000;stroke-linecap:round;stroke-linejoin:round;stroke-width:2.09573385494487px"/><path d="M14.89,13.34c1.21-.54,2.31-.57,2.91,0,1,1,.23,3.45-1.76,5.44s-4.42,2.78-5.44,1.76a2.28,2.28,0,0,1-.24-2.35" style="fill:none;stroke:#000;stroke-linecap:round;stroke-linejoin:round;stroke-width:2.09573385494487px"/><path d="M16,47.24A7,7,0,0,1,19.19,40" style="fill:none;stroke:#000;stroke-linecap:round;stroke-linejoin:round;stroke-width:2.09573385494487px"/><path d="M25,39.36a7,7,0,1,1-6.3,12.24" style="fill:none;stroke:#000;stroke-linecap:round;stroke-linejoin:round;stroke-width:2.09573385494487px"/><path d="M59.52,29.23A3.34,3.34,0,0,1,57,32.07a3.49,3.49,0,0,1-4-2.83A3.49,3.49,0,0,1,55.43,25a3.18,3.18,0,0,1,2.53.53" style="fill:none;stroke:#000;stroke-linecap:round;stroke-linejoin:round;stroke-width:2.09573385494487px"/><path d="M7.62,45.3c1-.25,2,.62,2.37,2s-.13,2.62-1.08,2.87" style="fill:none;stroke:#000;stroke-linecap:round;stroke-linejoin:round;stroke-width:2.09573385494487px"/><ellipse cx="57.85" cy="58.4" rx="4.47" ry="2.7" transform="translate(-24.36 58.01) rotate(-45)" style="fill:none;stroke:#000;stroke-linecap:round;stroke-linejoin:round;stroke-width:2.09573385494487px"/><path d="M47.19,39.08a8.21,8.21,0,1,1,0-11.61" style="fill:none;stroke:#000;stroke-linecap:round;stroke-linejoin:round;stroke-width:2.09573385494487px"/><path d="M49.6,33.28a8.24,8.24,0,0,1-.13,1.46" style="fill:none;stroke:#000;stroke-linecap:round;stroke-linejoin:round;stroke-width:2.09573385494487px"/><path d="M31.54,66.22a4.16,4.16,0,0,1,5.84.71" style="fill:none;stroke:#000;stroke-linecap:round;stroke-linejoin:round;stroke-width:2.09573385494487px"/></g></g></g></g></g></g></svg>