<svg xmlns="http://www.w3.org/2000/svg" viewBox="0 0 72.29 72.49"><title>Asset 6</title><g id="Layer_2" data-name="Layer 2"><g id="Desktop_layout" data-name="Desktop layout"><g id="Content"><g id="Top_text" data-name="Top text"><g id="Layer_15" data-name="Layer 15"><g id="Layer_19" data-name="Layer 19"><circle cx="36.14" cy="36.21" r="35.08" style="fill:none;stroke:#2b3e42;stroke-linecap:round;stroke-linejoin:round;stroke-width:2.12481853955572px"/><path d="M33.79,11.2c-1.25-.67-2.3-2-1.63-3.43s2.33-1.9,3.66-2.19a11.07,11.07,0,0,1,7.28.65c1.59.88,1.26,2.48-.33,3.23" style="fill:none;stroke:#2b3e42;stroke-linecap:round;stroke-linejoin:round;stroke-width:2.12481853955572px"/><path d="M21.47,11c-1.08-3.37,2.16-6.2,4.82-7.59A23.66,23.66,0,0,1,37,1.06a23.59,23.59,0,0,1,10.95,2.3c1.37.7,2.85,1.73,3.12,3.36s-.87,3-2.13,3.9c-3.05,2.13-7.1,2.38-10.67,1.86" style="fill:none;stroke:#2b3e42;stroke-linecap:round;stroke-linejoin:round;stroke-width:2.12481853955572px"/><path d="M26.63,15.88a14.93,14.93,0,0,1-2.55-1.53" style="fill:none;stroke:#2b3e42;stroke-linecap:round;stroke-linejoin:round;stroke-width:2.12481853955572px"/><path d="M49.28,17.62c3.4-.72,7.72-2.47,10-6.66" style="fill:none;stroke:#2b3e42;stroke-linecap:round;stroke-linejoin:round;stroke-width:2.12481853955572px"/><path d="M44.37,18.12a17.62,17.62,0,0,0,1.9-.06" style="fill:none;stroke:#2b3e42;stroke-linecap:round;stroke-linejoin:round;stroke-width:2.12481853955572px"/><path d="M50.37,23.93q1.59-.42,3.26-1" style="fill:none;stroke:#2b3e42;stroke-linecap:round;stroke-linejoin:round;stroke-width:2.12481853955572px"/><path d="M20.82,20.25c4.69,3.24,13.17,6.9,26,4.49" style="fill:none;stroke:#2b3e42;stroke-linecap:round;stroke-linejoin:round;stroke-width:2.12481853955572px"/><path d="M16.34,16.22A15.12,15.12,0,0,0,18,18" style="fill:none;stroke:#2b3e42;stroke-linecap:round;stroke-linejoin:round;stroke-width:2.12481853955572px"/><path d="M7.51,36.23,6.23,36" style="fill:none;stroke:#2b3e42;stroke-linecap:round;stroke-linejoin:round;stroke-width:2.12481853955572px"/><path d="M26.12,50c-1.67-7-8.3-11.14-14.79-12.94" style="fill:none;stroke:#2b3e42;stroke-linecap:round;stroke-linejoin:round;stroke-width:2.12481853955572px"/><path d="M24.31,56.64a6.44,6.44,0,0,0,1.3-1.86" style="fill:none;stroke:#2b3e42;stroke-linecap:round;stroke-linejoin:round;stroke-width:2.12481853955572px"/><path d="M20.2,49.3c-1.36-3.44-6.45-5.63-9.15-2.33-2.31,2.82.18,7.17,2.43,9.21a8.81,8.81,0,0,0,7.45,2.21" style="fill:none;stroke:#2b3e42;stroke-linecap:round;stroke-linejoin:round;stroke-width:2.12481853955572px"/><path d="M14,50.61c.41,2.2,3.44,4.24,5.45,2.65" style="fill:none;stroke:#2b3e42;stroke-linecap:round;stroke-linejoin:round;stroke-width:2.12481853955572px"/><path d="M25,36.2c4.16,3.82,8.17,9.1,8.88,14.87a12.37,12.37,0,0,1-6,12.14" style="fill:none;stroke:#2b3e42;stroke-linecap:round;stroke-linejoin:round;stroke-width:2.12481853955572px"/><path d="M20.85,33q.77.51,1.51,1.06" style="fill:none;stroke:#2b3e42;stroke-linecap:round;stroke-linejoin:round;stroke-width:2.12481853955572px"/><path d="M2.37,26.71A43.35,43.35,0,0,1,15,29.85" style="fill:none;stroke:#2b3e42;stroke-linecap:round;stroke-linejoin:round;stroke-width:2.12481853955572px"/><path d="M36.14,36.21s8.64,12.47,3.8,22.37" style="fill:none;stroke:#2b3e42;stroke-linecap:round;stroke-linejoin:round;stroke-width:2.12481853955572px"/><path d="M64.75,41c1.45-.69,2.49.73,2.33,3.16" style="fill:none;stroke:#2b3e42;stroke-linecap:round;stroke-linejoin:round;stroke-width:2.12481853955572px"/><path d="M56.81,46a23.28,23.28,0,0,1,5-9.49c1.52-1.64,4.2-3.75,6.44-2.14,2.42,1.74,2.44,5.78,2.13,8.4-.4,3.38-1.82,7.34-4.56,9.54-1,.79-2.35,1.4-3.45.47C61.09,51.75,61,49.62,61.1,48.1" style="fill:none;stroke:#2b3e42;stroke-linecap:round;stroke-linejoin:round;stroke-width:2.12481853955572px"/><path d="M55.85,51.54q0-.74.14-1.48" style="fill:none;stroke:#2b3e42;stroke-linecap:round;stroke-linejoin:round;stroke-width:2.12481853955572px"/><path d="M58.82,63c-1.49-1.36-2.52-3.76-2.89-6.91" style="fill:none;stroke:#2b3e42;stroke-linecap:round;stroke-linejoin:round;stroke-width:2.12481853955572px"/><path d="M54.9,35.38c2.46-3.78,5.79-7.55,10.28-8.81" style="fill:none;stroke:#2b3e42;stroke-linecap:round;stroke-linejoin:round;stroke-width:2.12481853955572px"/><path d="M52,63.84A36.75,36.75,0,0,1,50.69,46" style="fill:none;stroke:#2b3e42;stroke-linecap:round;stroke-linejoin:round;stroke-width:2.12481853955572px"/><path d="M38.68,71.43s4.85-2.53,5.69-10.11" style="fill:none;stroke:#2b3e42;stroke-linecap:round;stroke-linejoin:round;stroke-width:2.12481853955572px"/></g></g></g></g></g></g></svg>