<svg xmlns="http://www.w3.org/2000/svg" viewBox="0 0 70.79 70.79"><title>Asset 4</title><g id="Layer_2" data-name="Layer 2"><g id="Desktop_layout" data-name="Desktop layout"><g id="Content"><g id="Top_text" data-name="Top text"><g id="Layer_15" data-name="Layer 15"><g id="Layer_17" data-name="Layer 17"><circle cx="35.39" cy="35.39" r="34.35" style="fill:none;stroke:#2b3e42;stroke-linecap:round;stroke-linejoin:round;stroke-width:2.08074244175601px"/><ellipse cx="34.43" cy="47.1" rx="8.04" ry="4.59" transform="translate(-22.61 34.85) rotate(-41.71)" style="fill:none;stroke:#2b3e42;stroke-linecap:round;stroke-linejoin:round;stroke-width:2.08074244175601px"/><ellipse cx="34.43" cy="47.1" rx="4.02" ry="1.89" transform="translate(-22.61 34.85) rotate(-41.71)" style="stroke:#2b3e42;stroke-miterlimit:10;stroke-width:0.260092805219501px"/><path d="M2.18,44.19a123.09,123.09,0,0,0,23.5-18.51A123.09,123.09,0,0,0,44.19,2.18" style="fill:none;stroke:#2b3e42;stroke-linecap:round;stroke-linejoin:round;stroke-width:2.08074244175601px"/><path d="M5,51.38A121.51,121.51,0,0,0,31.26,31.26,121.53,121.53,0,0,0,51.38,5" style="fill:none;stroke:#2b3e42;stroke-linecap:round;stroke-linejoin:round;stroke-width:2.08074244175601px"/><path d="M23.24,22.65A124,124,0,0,0,39.9,2" style="fill:none;stroke:#2b3e42;stroke-linecap:round;stroke-linejoin:round;stroke-width:2.08074244175601px"/><path d="M40.45,41.76l.66-.65A120.73,120.73,0,0,0,61.91,13.6" style="fill:none;stroke:#2b3e42;stroke-linecap:round;stroke-linejoin:round;stroke-width:2.08074244175601px"/><path d="M13.6,61.91a113.34,113.34,0,0,0,14.73-9.58" style="fill:none;stroke:#2b3e42;stroke-linecap:round;stroke-linejoin:round;stroke-width:2.08074244175601px"/><path d="M21.38,66.77A121.72,121.72,0,0,0,47,47,121.72,121.72,0,0,0,66.77,21.38" style="fill:none;stroke:#2b3e42;stroke-linecap:round;stroke-linejoin:round;stroke-width:2.08074244175601px"/><path d="M55.62,43.88A119.66,119.66,0,0,0,68,27.18" style="fill:none;stroke:#2b3e42;stroke-linecap:round;stroke-linejoin:round;stroke-width:2.08074244175601px"/><path d="M27.2,68c3.17-1.93,6.23-4,9.2-6.26" style="fill:none;stroke:#2b3e42;stroke-linecap:round;stroke-linejoin:round;stroke-width:2.08074244175601px"/></g></g></g></g></g></g></svg>