<svg xmlns="http://www.w3.org/2000/svg" viewBox="0 0 63.65 63.65"><title>Asset 2</title><g id="Layer_2" data-name="Layer 2"><g id="Desktop_layout" data-name="Desktop layout"><g id="Content"><g id="Top_text" data-name="Top text"><g id="Layer_15" data-name="Layer 15"><circle cx="31.83" cy="31.83" r="30.89" style="fill:none;stroke:#2b3e42;stroke-linecap:round;stroke-linejoin:round;stroke-width:1.87093677240356px"/><path d="M3.37,19.78c5.92,2.6,13.13,5.09,19,5.09,12.24,0,15-7.51,29.5-7.79q3.92-.08,7.05-.1" style="fill:none;stroke:#2b3e42;stroke-linecap:round;stroke-linejoin:round;stroke-width:1.87093677240356px"/><path d="M19.85,60.31c2.22-5.69,6.77-13.68,15.6-18.18C46,36.75,53.56,41.2,61.39,40.81" style="fill:none;stroke:#2b3e42;stroke-linecap:round;stroke-linejoin:round;stroke-width:1.87093677240356px"/><path d="M5.82,48.51a33.36,33.36,0,0,0,19-9.17c10-10,12.8-10.3,18.92-10.3,5,0,12.46,5.23,18.81,5.44" style="fill:none;stroke:#2b3e42;stroke-linecap:round;stroke-linejoin:round;stroke-width:1.87093677240356px"/><path d="M19.35,3.56c6.43,1,14.2,3,19.15,7.12,3.87,3.21,10.55,3,17.2,1.56" style="fill:none;stroke:#2b3e42;stroke-linecap:round;stroke-linejoin:round;stroke-width:1.87093677240356px"/><path d="M12.95,7.37h0c2.37.51,4.55,1.07,6,1.53,4.68,1.51,8.81,2.06,7.62,5.39-1.52,4.22-8.52,1.84-13.2.32A31.81,31.81,0,0,1,8,12.16" style="fill:none;stroke:#2b3e42;stroke-linecap:round;stroke-linejoin:round;stroke-width:1.87093677240356px"/><path d="M1.14,28.27c6.18.88,14.78,3,15.66,7.73.61,3.29-6.22,5.15-14.08,6.19" style="fill:none;stroke:#2b3e42;stroke-linecap:round;stroke-linejoin:round;stroke-width:1.87093677240356px"/><path d="M23.84,61.68C29.21,56,42.35,44.47,57.94,48.33h0" style="fill:none;stroke:#2b3e42;stroke-linecap:round;stroke-linejoin:round;stroke-width:1.87093677240356px"/></g></g></g></g></g></svg>