<svg xmlns="http://www.w3.org/2000/svg" viewBox="0 0 78.93 78.93"><title>Asset 3</title><g id="Layer_2" data-name="Layer 2"><g id="Desktop_layout" data-name="Desktop layout"><g id="Content"><g id="Top_text" data-name="Top text"><g id="Layer_15" data-name="Layer 15"><g id="Layer_16" data-name="Layer 16"><path d="M24.59,63.44a28.43,28.43,0,0,1-9.11-9.11,27.9,27.9,0,0,1-2.61-5.43,28.22,28.22,0,0,1,36-36,27.9,27.9,0,0,1,5.43,2.61,28.43,28.43,0,0,1,9.11,9.11" style="fill:none;stroke:#2b3e42;stroke-linecap:round;stroke-linejoin:round;stroke-width:1.66372402288482px"/><path d="M30,66.06a28.22,28.22,0,0,0,36-36" style="fill:none;stroke:#2b3e42;stroke-linecap:round;stroke-linejoin:round;stroke-width:1.66372402288482px"/><path d="M48.9,12.87C62.1,3,73.13-1.59,76.82,2.1S75.92,16.83,66.06,30a180.7,180.7,0,0,1-16.8,19.23A180.64,180.64,0,0,1,30,66.06C16.83,75.92,5.8,80.52,2.1,76.82S3,62.1,12.87,48.9" style="fill:none;stroke:#2b3e42;stroke-linecap:round;stroke-linejoin:round;stroke-width:1.66372402288482px"/><path d="M54.33,15.48c5.34-2.93,9.45-3.84,11.21-2.09s.83,5.86-2.09,11.21c-3.38,6.17-9.43,14-17.15,21.7S30.76,60.07,24.59,63.44c-5.34,2.93-9.45,3.84-11.21,2.09s-.83-5.86,2.09-11.21" style="fill:none;stroke:#2b3e42;stroke-linecap:round;stroke-linejoin:round;stroke-width:1.66372402288482px"/></g></g></g></g></g></g></svg>