<svg xmlns="http://www.w3.org/2000/svg" viewBox="0 0 231.64 296.34"><title>Asset 7</title><g id="Layer_2" data-name="Layer 2"><g id="Desktop_layout" data-name="Desktop layout"><g id="Sidebar"><g id="Rocket_Background_circle" data-name="Rocket Background circle"><circle cx="115.82" cy="115.82" r="115.82" style="fill:#2b3e42"/></g><g id="Rocket_Ship" data-name="Rocket Ship"><line x1="135.41" y1="235.3" x2="96.23" y2="235.3" style="fill:#747e80;stroke:#f7f3e8;stroke-miterlimit:10;stroke-width:5.15863549928583px"/><path d="M85.66,186V82.18a104,104,0,0,1,26.8-69.68h0a4.52,4.52,0,0,1,6.72,0h0A104,104,0,0,1,146,82.18V186" style="fill:#f2583e;stroke:#f7f3e8;stroke-miterlimit:10;stroke-width:5.15863549928583px"/><path d="M96.23,250.39V144.74a144.58,144.58,0,0,1,9.43-51.36h0a10.87,10.87,0,0,1,20.33,0h0a144.58,144.58,0,0,1,9.43,51.36V250.39" style="fill:#d5e1dd;stroke:#f7f3e8;stroke-miterlimit:10;stroke-width:5.15863549928583px"/><line x1="120.68" y1="260.9" x2="110.96" y2="260.9" style="fill:#747e80;stroke:#f7f3e8;stroke-miterlimit:10;stroke-width:5.15863549928583px"/><path d="M135.41,260.9V250.39L176.9,244V232.77a20.91,20.91,0,0,0-5.23-13.83l-13.41-15.18a91.28,91.28,0,0,1-22.84-60.4" style="fill:#747e80;stroke:#f7f3e8;stroke-miterlimit:10;stroke-width:5.15863549928583px"/><path d="M96.23,260.9V250.39L54.75,244V232.77A20.87,20.87,0,0,1,60,218.93l13.4-15.18a91.28,91.28,0,0,0,22.84-60.4" style="fill:#747e80;stroke:#f7f3e8;stroke-miterlimit:10;stroke-width:5.15863549928583px"/><line x1="176.9" y1="232.77" x2="135.41" y2="232.77" style="fill:#747e80;stroke:#f7f3e8;stroke-miterlimit:10;stroke-width:5.15863549928583px"/><line x1="96.23" y1="232.77" x2="54.75" y2="232.77" style="fill:#747e80;stroke:#f7f3e8;stroke-miterlimit:10;stroke-width:5.15863549928583px"/><line x1="95.61" y1="146.45" x2="133.66" y2="146.45" style="fill:none;stroke:#f7f3e8;stroke-miterlimit:10;stroke-width:5.15863549928583px"/><line x1="102.83" y1="102.83" x2="128.82" y2="102.83" style="fill:none;stroke:#f7f3e8;stroke-miterlimit:10;stroke-width:5.15863549928583px"/><path d="M105.23,132.06a9.13,9.13,0,0,1,9.13-9.13" style="fill:none;stroke:#f7f3e8;stroke-miterlimit:10;stroke-width:5.15863549928583px"/><path d="M117.29,122.94a9.13,9.13,0,0,1,9.13,9.13" style="fill:none;stroke:#f7f3e8;stroke-miterlimit:10;stroke-width:5.15863549928583px"/><path d="M111,277H96.23V258A14.73,14.73,0,0,1,111,243.27h0Z" style="fill:#747e80;stroke:#f7f3e8;stroke-linejoin:round;stroke-width:5.15863549928583px"/><path d="M135.42,277H120.69V243.27h0A14.73,14.73,0,0,1,135.42,258Z" style="fill:#747e80;stroke:#f7f3e8;stroke-linejoin:round;stroke-width:5.15863549928583px"/><line x1="87.08" y1="68.26" x2="142.76" y2="68.26" style="fill:none;stroke:#f7f3e8;stroke-miterlimit:10;stroke-width:5.15863549928583px"/><path d="M58.44,220.92V86.48L69.55,61.72a2.74,2.74,0,0,1,5,0L85.66,86.48V186" style="fill:#747e80;stroke:#f7f3e8;stroke-miterlimit:10;stroke-width:5.15863549928583px"/><polyline points="85.66 248.76 85.66 262.83 58.44 262.83 58.44 244.58" style="fill:#747e80;stroke:#f7f3e8;stroke-miterlimit:10;stroke-width:5.15863549928583px"/><polygon points="88.31 285.72 55.8 285.72 58.44 262.81 85.66 262.81 88.31 285.72" style="fill:#747e80;stroke:#f7f3e8;stroke-miterlimit:10;stroke-width:5.15863549928583px"/><polyline points="80.27 285.72 80.76 293.76 63.34 293.76 63.84 285.72" style="fill:none;stroke:#f7f3e8;stroke-miterlimit:10;stroke-width:5.15863549928583px"/><polyline points="167.81 285.72 168.31 293.76 150.89 293.76 151.38 285.72" style="fill:none;stroke:#f7f3e8;stroke-miterlimit:10;stroke-width:5.15863549928583px"/><polygon points="175.85 285.72 143.35 285.72 145.99 262.81 173.21 262.81 175.85 285.72" style="fill:#747e80;stroke:#f7f3e8;stroke-miterlimit:10;stroke-width:5.15863549928583px"/><line x1="58.44" y1="86.48" x2="83.24" y2="86.48" style="fill:none;stroke:#f7f3e8;stroke-miterlimit:10;stroke-width:5.15863549928583px"/><path d="M146,186V86.48L157.1,61.72a2.74,2.74,0,0,1,5,0l11.11,24.77V220.92" style="fill:#747e80;stroke:#f7f3e8;stroke-miterlimit:10;stroke-width:5.15863549928583px"/><polyline points="173.21 244.58 173.21 262.83 145.99 262.83 145.99 248.76" style="fill:#747e80;stroke:#f7f3e8;stroke-miterlimit:10;stroke-width:5.15863549928583px"/><line x1="173.21" y1="86.48" x2="148.41" y2="86.48" style="fill:none;stroke:#f7f3e8;stroke-miterlimit:10;stroke-width:5.15863549928583px"/></g></g></g></g></svg>